<svg width="1200" height="630" viewBox="0 0 1200 630" xmlns="http://www.w3.org/2000/svg">
  <defs>
    <style>
      @import url('https://fonts.googleapis.com/css2?family=Orbitron:wght@700&amp;family=Plus+Jakarta+Sans:wght@400&amp;display=swap');
    </style>
    <pattern id="dots" x="0" y="0" width="28" height="28" patternUnits="userSpaceOnUse">
      <circle cx="1" cy="1" r="1.2" fill="#077a6e" fill-opacity="0.2"/>
    </pattern>
  </defs>

  <!-- Background -->
  <rect width="1200" height="630" fill="#f0faf8"/>
  <rect width="1200" height="630" fill="url(#dots)"/>

  <!-- Heading -->
  <text x="600" y="198"
    text-anchor="middle"
    font-family="Orbitron, monospace"
    font-size="76" font-weight="700"
    fill="#077a6e">Join the Conversation</text>

  <!-- Subheading -->
  <text x="600" y="256"
    text-anchor="middle"
    font-family="'Plus Jakarta Sans', sans-serif"
    font-size="32" font-weight="400"
    fill="#5a9e98">Superbridged chats</text>

  <!-- Domain -->
  <text x="600" y="598"
    text-anchor="middle"
    font-family="'Plus Jakarta Sans', sans-serif"
    font-size="18" fill="rgba(7,122,110,0.38)" letter-spacing="0.08em">localai.xdeca.com</text>

  <!-- ── Platform logos floating below text, varied sizes, no circles ── -->

  <!-- Telegram – left, very large -->
  <svg x="148" y="358" width="98" height="98" viewBox="0 0 16 16" fill="#077a6e" fill-opacity="0.45">
    <path d="M16 8A8 8 0 1 1 0 8a8 8 0 0 1 16 0M8.287 5.906q-1.168.486-4.666 2.01-.567.225-.595.442c-.03.243.275.339.69.47l.175.055c.408.133.958.288 1.243.294q.39.01.868-.32 3.269-2.206 3.374-2.23c.05-.012.12-.026.166.016s.042.12.037.141c-.03.129-1.227 1.241-1.846 1.817-.193.18-.33.307-.358.336a8 8 0 0 1-.188.186c-.38.366-.664.64.015 1.088.327.216.589.393.85.571.284.194.568.387.936.629q.14.092.27.187c.331.236.63.448.997.414.214-.02.435-.22.547-.82.265-1.417.786-4.486.906-5.751a1.4 1.4 0 0 0-.013-.315.34.34 0 0 0-.114-.217.53.53 0 0 0-.31-.093c-.3.005-.763.166-2.984 1.09"/>
  </svg>

  <!-- Discord – left-centre, medium, lower -->
  <svg x="330" y="442" width="74" height="74" viewBox="0 0 16 16" fill="#077a6e" fill-opacity="0.4">
    <path d="M13.545 2.907a13.2 13.2 0 0 0-3.257-1.011.05.05 0 0 0-.052.025c-.141.25-.297.577-.406.833a12.2 12.2 0 0 0-3.658 0 8 8 0 0 0-.412-.833.05.05 0 0 0-.052-.025c-1.125.194-2.22.534-3.257 1.011a.04.04 0 0 0-.021.018C.356 6.024-.213 9.047.066 12.032q.003.022.021.037a13.3 13.3 0 0 0 3.995 2.02.05.05 0 0 0 .056-.019q.463-.63.818-1.329a.05.05 0 0 0-.01-.059l-.018-.011a9 9 0 0 1-1.248-.595.05.05 0 0 1-.02-.066l.015-.019q.127-.095.248-.195a.05.05 0 0 1 .051-.007c2.619 1.196 5.454 1.196 8.041 0a.05.05 0 0 1 .053.007q.121.1.248.195a.05.05 0 0 1-.004.085 8 8 0 0 1-1.249.594.05.05 0 0 0-.03.03.05.05 0 0 0 .003.041c.24.465.515.909.817 1.329a.05.05 0 0 0 .056.019 13.2 13.2 0 0 0 4.001-2.02.05.05 0 0 0 .021-.037c.334-3.451-.559-6.449-2.366-9.106a.03.03 0 0 0-.02-.019m-8.198 7.307c-.789 0-1.438-.724-1.438-1.612s.637-1.613 1.438-1.613c.807 0 1.45.73 1.438 1.613 0 .888-.637 1.612-1.438 1.612m5.316 0c-.788 0-1.438-.724-1.438-1.612s.637-1.613 1.438-1.613c.807 0 1.451.73 1.438 1.613 0 .888-.631 1.612-1.438 1.612"/>
  </svg>

  <!-- WhatsApp – centre, large, higher -->
  <svg x="558" y="348" width="88" height="88" viewBox="0 0 16 16" fill="#077a6e" fill-opacity="0.42">
    <path d="M13.601 2.326A7.85 7.85 0 0 0 7.994 0C3.627 0 .068 3.558.064 7.926c0 1.399.366 2.76 1.057 3.965L0 16l4.204-1.102a7.9 7.9 0 0 0 3.79.965h.004c4.368 0 7.926-3.558 7.93-7.93A7.9 7.9 0 0 0 13.6 2.326zM7.994 14.521a6.6 6.6 0 0 1-3.356-.92l-.24-.144-2.494.654.666-2.433-.156-.251a6.56 6.56 0 0 1-1.007-3.505c0-3.626 2.957-6.584 6.591-6.584a6.56 6.56 0 0 1 4.66 1.931 6.56 6.56 0 0 1 1.928 4.66c-.004 3.639-2.961 6.592-6.592 6.592m3.615-4.934c-.197-.099-1.17-.578-1.353-.646-.182-.065-.315-.099-.445.099-.133.197-.513.646-.627.775-.114.133-.232.148-.43.05-.197-.1-.836-.308-1.592-.985-.59-.525-.985-1.175-1.103-1.372-.114-.198-.011-.304.088-.403.087-.088.197-.232.296-.346.1-.114.133-.198.198-.33.065-.134.034-.248-.015-.347-.05-.099-.445-1.076-.612-1.47-.16-.389-.323-.335-.445-.34-.114-.007-.247-.007-.38-.007a.73.73 0 0 0-.529.247c-.182.198-.691.677-.691 1.654s.71 1.916.81 2.049c.098.133 1.394 2.132 3.383 2.992.47.205.84.326 1.129.418.475.152.904.129 1.246.08.38-.058 1.171-.48 1.338-.943.164-.464.164-.86.114-.943-.049-.084-.182-.133-.38-.232"/>
  </svg>

  <!-- Signal – right-centre, medium, lower -->
  <svg x="782" y="438" width="70" height="70" viewBox="0 0 16 16" fill="#077a6e" fill-opacity="0.4">
    <path d="m6.08.234.179.727a7.3 7.3 0 0 0-2.01.832l-.383-.643A7.9 7.9 0 0 1 6.079.234zm3.84 0L9.742.96a7.3 7.3 0 0 1 2.01.832l.388-.643A8 8 0 0 0 9.92.234m-8.77 3.63a8 8 0 0 0-.916 2.215l.727.18a7.3 7.3 0 0 1 .832-2.01l-.643-.386zM.75 8a7 7 0 0 1 .081-1.086L.091 6.8a8 8 0 0 0 0 2.398l.74-.112A7 7 0 0 1 .75 8m11.384 6.848-.384-.64a7.2 7.2 0 0 1-2.007.831l.18.728a8 8 0 0 0 2.211-.919M15.251 8q0 .547-.082 1.086l.74.112a8 8 0 0 0 0-2.398l-.74.114q.082.54.082 1.086m.516 1.918-.728-.18a7.3 7.3 0 0 1-.832 2.012l.643.387a8 8 0 0 0 .917-2.219m-6.68 5.25c-.72.11-1.453.11-2.173 0l-.112.742a8 8 0 0 0 2.396 0l-.112-.741zm4.75-2.868a7.2 7.2 0 0 1-1.537 1.534l.446.605a8 8 0 0 0 1.695-1.689zM12.3 2.163c.587.432 1.105.95 1.537 1.537l.604-.45a8 8 0 0 0-1.69-1.691zM2.163 3.7A7.2 7.2 0 0 1 3.7 2.163l-.45-.604a8 8 0 0 0-1.691 1.69l.604.45zm12.688.163-.644.387c.377.623.658 1.3.832 2.007l.728-.18a8 8 0 0 0-.916-2.214M6.913.831a7.3 7.3 0 0 1 2.172 0l.112-.74a8 8 0 0 0-2.396 0zM2.547 14.64 1 15l.36-1.549-.729-.17-.361 1.548a.75.75 0 0 0 .9.902l1.548-.357zM.786 12.612l.732.168.25-1.073A7.2 7.2 0 0 1 .96 9.74l-.727.18a8 8 0 0 0 .736 1.902l-.184.79zm3.5 1.623-1.073.25.17.731.79-.184c.6.327 1.239.574 1.902.737l.18-.728a7.2 7.2 0 0 1-1.962-.811zM8 1.5a6.5 6.5 0 0 0-6.498 6.502 6.5 6.5 0 0 0 .998 3.455l-.625 2.668L4.54 13.5a6.502 6.502 0 0 0 6.93-11A6.5 6.5 0 0 0 8 1.5"/>
  </svg>

  <!-- Matrix – right, very large -->
  <svg x="954" y="352" width="96" height="96" viewBox="0 0 520 520" fill="#077a6e" fill-opacity="0.42">
    <path d="M13.7,11.9v496.2h35.7V520H0V0h49.4v11.9H13.7z"/>
    <path d="M166.3,169.2v25.1h0.7c6.7-9.6,14.8-17,24.2-22.2c9.4-5.3,20.3-7.9,32.5-7.9c11.7,0,22.4,2.3,32.1,6.8c9.7,4.5,17,12.6,22.1,24c5.5-8.1,13-15.3,22.4-21.5c9.4-6.2,20.6-9.3,33.5-9.3c9.8,0,18.9,1.2,27.3,3.6c8.4,2.4,15.5,6.2,21.5,11.5c6,5.3,10.6,12.1,14,20.6c3.3,8.5,5,18.7,5,30.7v124.1h-50.9V249.6c0-6.2-0.2-12.1-0.7-17.6c-0.5-5.5-1.8-10.3-3.9-14.3c-2.2-4.1-5.3-7.3-9.5-9.7c-4.2-2.4-9.9-3.6-17-3.6c-7.2,0-13,1.4-17.4,4.1c-4.4,2.8-7.9,6.3-10.4,10.8c-2.5,4.4-4.2,9.4-5,15.1c-0.8,5.6-1.3,11.3-1.3,17v103.3h-50.9v-104c0-5.5-0.1-10.9-0.4-16.3c-0.2-5.4-1.3-10.3-3.1-14.9c-1.8-4.5-4.8-8.2-9-10.9c-4.2-2.7-10.3-4.1-18.5-4.1c-2.4,0-5.6,0.5-9.5,1.6c-3.9,1.1-7.8,3.1-11.5,6.1c-3.7,3-6.9,7.3-9.5,12.9c-2.6,5.6-3.9,13-3.9,22.1v107.6h-50.9V169.2H166.3z"/>
    <path d="M506.3,508.1V11.9h-35.7V0H520v520h-49.4v-11.9H506.3z"/>
  </svg>
</svg>
